<?xml version="1.0" standalone="no"?>
<!DOCTYPE svg PUBLIC "-//W3C//DTD SVG 20010904//EN"
 "http://www.w3.org/TR/2001/REC-SVG-20010904/DTD/svg10.dtd">
<svg version="1.0" xmlns="http://www.w3.org/2000/svg"
 width="261.000000pt" height="261.000000pt" viewBox="0 0 261.000000 261.000000"
 preserveAspectRatio="xMidYMid meet">
<metadata>
Created by potrace 1.11, written by Peter Selinger 2001-2013
</metadata>
<g transform="translate(0.000000,261.000000) scale(0.100000,-0.100000)"
fill="#000000" stroke="none">
<path d="M1190 2278 c-106 -15 -125 -19 -215 -50 -499 -174 -771 -735 -600
-1237 140 -413 523 -678 960 -666 156 4 307 44 427 111 33 19 62 34 65 34 12
0 142 109 191 160 59 61 128 159 165 235 22 44 76 187 76 200 0 3 5 31 12 63
7 31 12 116 12 187 -2 269 -95 491 -287 681 -130 130 -302 229 -451 259 -95
20 -133 25 -205 28 -47 2 -114 -1 -150 -5z"/>
</g>
</svg>
