<svg id="e98b78a5-67ef-4784-8817-dcfe7bb7a65d" data-name="Layer 1" xmlns="http://www.w3.org/2000/svg" viewBox="0 0 112.34 32.33"><title>Tjing</title><polygon points="19.57 0.07 0 0.07 1.3 7.96 7.12 7.96 10.98 31.39 18.87 31.39 15.01 7.96 20.87 7.96 19.57 0.07"/><polygon points="42.8 31.39 50.69 31.39 45.54 0.09 37.65 0.09 42.8 31.39"/><polygon points="71.61 16.61 59.65 0.09 51.31 0.09 56.47 31.39 64.36 31.39 61.63 14.82 73.64 31.39 81.94 31.39 76.78 0.09 68.89 0.09 71.61 16.61"/><path d="M25.58,31.6H23.36l-1.28-7.79H24.3a3.06,3.06,0,0,0,3.08-3.69L24.1.09h7.8l3.28,20C36.21,26.45,31.91,31.6,25.58,31.6Z"/><path d="M103.33,20.23l.49,3h0a6.45,6.45,0,0,1-1.25.65h0a7.5,7.5,0,0,1-2.8.52,10.1,10.1,0,0,1-9.57-8.22,7.08,7.08,0,0,1,1.55-5.91A6.72,6.72,0,0,1,95.82,8l.37,0a8.55,8.55,0,0,1,3.78.53,9.38,9.38,0,0,1,2.88,1.72l.35.3,4.68-5.6-.06-.05.13-.16A18.92,18.92,0,0,0,95.74,0a15.17,15.17,0,0,0-4.39.64l-.17,0L90.86.8c-.34.11-.67.23-1,.37a12.22,12.22,0,0,0-3.19,2,13.7,13.7,0,0,0-4.43,13c1.46,8.92,9.91,16.17,18.82,16.17a15,15,0,0,0,5-.85,12.89,12.89,0,0,0,6.23-4.69l-2.18-13.26h-14l1.11,6.7Z"/></svg>